<?xml version="1.0" encoding="UTF-8"?>
<svg id="Ebene_1" xmlns="http://www.w3.org/2000/svg" version="1.1" xmlns:inkscape="http://www.inkscape.org/namespaces/inkscape" xmlns:sodipodi="http://sodipodi.sourceforge.net/DTD/sodipodi-0.dtd" viewBox="0 0 536.06 271.56">
  <!-- Generator: Adobe Illustrator 30.5.1, SVG Export Plug-In . SVG Version: 2.1.4 Build 3)  -->
  <defs>
    <style>
      .st0 {
        fill-rule: evenodd;
        stroke: #000;
        stroke-linecap: round;
        stroke-linejoin: round;
        stroke-width: .28px;
      }
    </style>
  </defs>
  <sodipodi:namedview bordercolor="#000000" borderopacity="0.25" inkscape:current-layer="svg18" inkscape:cx="396.3774" inkscape:cy="561.25984" inkscape:deskcolor="#d1d1d1" inkscape:document-units="mm" inkscape:pagecheckerboard="0" inkscape:pageopacity="0.0" inkscape:showpageshadow="2" inkscape:window-height="1111" inkscape:window-maximized="1" inkscape:window-width="1920" inkscape:window-x="-9" inkscape:window-y="-9" inkscape:zoom="0.75811588" pagecolor="#ffffff" showgrid="false"/>
  <path id="path_0d62b5e9a82ca542f1e44946b779982f" class="st0" d="M262.64,194.8c-2.08-1.09-7.8-4.31-12.72-7.16-4.91-2.84-13.11-7.59-18.22-10.54-31.88-18.45-44.03-25.58-45.46-26.69-.61-.48-1.77-1.94-2.58-3.26-1.45-2.38-1.46-2.7-1.46-49.15s.05-46.85,1.31-48.91c1.9-3.11,3.8-4.36,25.49-16.77,10.78-6.16,27.61-15.79,37.4-21.4,9.8-5.6,18.91-10.4,20.25-10.65,1.34-.25,3.69-.12,5.22.28,2.95.79,4.29,1.53,36.46,20.08,11.34,6.54,25.26,14.52,30.93,17.72,13.13,7.42,13.69,7.83,15.41,11.39,1.41,2.91,1.43,3.73,1.42,48.3-.02,53.3.57,49.15-7.68,54.31-2.76,1.73-14.14,8.42-25.3,14.87-11.15,6.45-23.06,13.36-26.47,15.35-3.4,1.99-10.05,5.88-14.78,8.64-10.56,6.17-13.33,6.69-19.25,3.58h0ZM258.82,167.64c.93-1.33,1.07-5.54,1.07-32.14,0-28.96-.07-30.73-1.32-32.78-1.84-3.02-3.01-3.77-32.36-20.7-20.23-11.67-21.52-12.3-23.58-11.36-3.08,1.4-3.3,3.93-3.08,35.43.23,32.94-.02,31.48,5.96,35.38,3.12,2.04,15.99,9.52,37.2,21.62,11.53,6.58,14.18,7.32,16.12,4.55h0ZM298.6,161.14c7.63-4.41,16.2-9.32,19.04-10.91,10.32-5.78,17.51-10.46,18.88-12.3,1.35-1.81,1.41-2.92,1.59-32.85q.21-33.7-3.6-34.64c-1.73-.43-9.62,3.76-33.72,17.91-5.67,3.33-12.29,7.17-14.7,8.54s-5.2,3.55-6.19,4.84l-1.8,2.35-.19,30.91c-.22,34.74-.29,34.17,4.37,34.17,1.85,0,5.74-1.91,16.31-8.02h0ZM292.55,72.54q29.92-17.14,29.9-20.33c0-3.03.52-2.68-29.56-20.02-19.69-11.35-20.08-11.54-23.7-11.54s-7.12,1.58-19.26,8.64c-3.78,2.2-9.35,5.44-12.37,7.2-3.02,1.76-8.59,4.98-12.37,7.15-8.38,4.82-9.51,5.85-9.51,8.75,0,1.68.53,2.67,2.14,3.96,1.17.95,12.29,7.53,24.69,14.63,21.82,12.49,22.68,12.91,26.38,12.92,3.7,0,4.51-.38,23.67-11.36h0ZM229.82,147.13c-2.74-1.52-5.42-3.45-5.95-4.29-.53-.84-1.64-4-2.46-7.03-.82-3.03-4.56-16.34-8.31-29.6-6.61-23.36-7.35-26.44-6.34-26.44,1.19,0,9.95,5.73,10.83,7.08.54.83,1.64,4.14,2.45,7.36,3.19,12.69,9.12,32.71,9.94,33.57.71.75,1.08.37,2.05-2.06,5.35-13.52,10.43-24.63,11.24-24.63,1.65,0,9.77,4.89,9.77,5.88,0,1.08-1.79,5.75-4.33,11.31-.95,2.08-3.59,8.27-5.87,13.75-4.8,11.55-7.58,17.88-7.83,17.87-.1,0-2.42-1.25-5.16-2.77h0ZM286.43,157.76c-.6-1.57-.49-50.67.12-51.63.9-1.41,22.27-13.31,26.39-14.71,2.18-.74,4.99-1.34,6.25-1.34,3.81,0,8.15,2.68,10.47,6.48,1.99,3.25,2.07,3.7,2.06,11.35,0,8.78-.76,11.55-5.7,21.02-3.12,5.99-10.66,13.65-17.12,17.4-2.56,1.49-8.44,4.91-13.05,7.61s-8.52,4.9-8.69,4.9-.49-.49-.72-1.09h0ZM305.29,137.27c6.15-3.6,10.44-8.04,12.89-13.36,1.52-3.29,1.81-4.89,1.83-10.22.03-6.07-.05-6.4-1.99-8.42-2.93-3.06-6.06-2.89-12.7.73-8.3,4.51-7.62,2.76-7.62,19.62s-.49,16.39,7.59,11.66h0ZM257.15,70.09c-5.68-2.01-6.13-2.72-3.9-6.09,1.01-1.53,1.95-2.78,2.09-2.78s1.76.68,3.6,1.51c2.5,1.13,4.7,1.52,8.67,1.54,4.85.02,5.48-.14,7.14-1.79,3.59-3.59.25-7.45-6.44-7.45-3.86,0-4.98-.84-4.98-3.72,0-1.62.83-2.85,3.78-5.65,2.08-1.97,3.78-3.9,3.78-4.3,0-.46-3.09-.8-8.42-.92l-8.42-.19v-6.19l14.35-.19c10-.13,14.63.05,15.3.6,2.08,1.73,1.07,4.24-3.61,8.95-2.5,2.52-4.37,4.89-4.14,5.26s1.32.85,2.43,1.07c1.11.22,3.11,1.36,4.44,2.53,6.46,5.67,4.09,14.52-4.78,17.84-5.1,1.91-15.47,1.9-20.89-.03h0Z"/>
  <path id="path_0c48b74c532f7b2f5bbd7ea74a5df824" class="st0" d="M14.71,270.74L.14,229.98h8.93l10.32,30.17,9.98-30.17h8.73l-14.6,40.76h-8.79Z"/>
  <path id="path_7a4b3610585e5b66ea34bb9deaf6447b" class="st0" d="M36.2,255.54c0-2.6.64-5.11,1.92-7.54,1.28-2.43,3.09-4.28,5.44-5.56,2.34-1.28,4.96-1.92,7.85-1.92,4.47,0,8.13,1.45,10.98,4.35s4.28,6.57,4.28,11-1.44,8.17-4.32,11.11-6.51,4.41-10.89,4.41c-2.71,0-5.29-.61-7.74-1.84-2.46-1.22-4.32-3.02-5.6-5.38-1.28-2.36-1.92-5.24-1.92-8.63h0ZM44.21,255.96c0,2.93.7,5.17,2.09,6.73,1.39,1.56,3.1,2.34,5.14,2.34s3.75-.78,5.13-2.34,2.07-3.82,2.07-6.78-.69-5.12-2.07-6.67c-1.38-1.56-3.09-2.34-5.13-2.34s-3.75.78-5.14,2.34c-1.39,1.56-2.09,3.8-2.09,6.73h0Z"/>
  <path id="path_019cef61a86c8a998f5d3fdebfe8451c" class="st0" d="M72.8,270.74v-40.76h7.81v40.76h-7.81Z"/>
  <path id="path_8b29a18540759f3e38bb178ab9ae1bb5" class="st0" d="M88.03,241.2h7.2v4.03c2.58-3.13,5.64-4.7,9.2-4.7,1.89,0,3.53.39,4.92,1.17,1.39.78,2.53,1.96,3.42,3.53,1.3-1.58,2.7-2.75,4.2-3.53,1.5-.78,3.1-1.17,4.81-1.17,2.17,0,4,.44,5.51,1.32s2.62,2.17,3.36,3.88c.54,1.26.81,3.3.81,6.12v18.88h-7.81v-16.88c0-2.93-.27-4.82-.81-5.67-.72-1.11-1.84-1.67-3.34-1.67-1.09,0-2.12.33-3.09,1s-1.66,1.64-2.09,2.93c-.43,1.29-.64,3.32-.64,6.1v14.18h-7.81v-16.18c0-2.87-.14-4.73-.42-5.56-.28-.83-.71-1.46-1.29-1.86-.58-.41-1.38-.61-2.38-.61-1.2,0-2.29.32-3.25.97-.96.65-1.65,1.58-2.07,2.81-.42,1.22-.63,3.25-.63,6.09v14.35h-7.81v-29.53h0Z"/>
  <path id="path_ba7ff8cc70c7b5906fc946857d5124cb" class="st0" d="M156.35,261.35l7.79,1.31c-1,2.85-2.58,5.03-4.74,6.52-2.16,1.49-4.86,2.24-8.11,2.24-5.13,0-8.93-1.68-11.4-5.03-1.95-2.69-2.92-6.08-2.92-10.18,0-4.89,1.28-8.73,3.84-11.5,2.56-2.77,5.79-4.16,9.7-4.16,4.39,0,7.86,1.45,10.4,4.35,2.54,2.9,3.75,7.35,3.64,13.33h-19.57c.06,2.32.69,4.12,1.89,5.41,1.2,1.29,2.71,1.93,4.5,1.93,1.22,0,2.25-.33,3.09-1,.83-.67,1.46-1.74,1.89-3.23h0ZM156.79,253.46c-.06-2.26-.64-3.98-1.75-5.16s-2.47-1.77-4.06-1.77c-1.71,0-3.11.62-4.23,1.86-1.11,1.24-1.66,2.93-1.64,5.06h11.68,0Z"/>
  <path id="path_678fd6350ed15342f403c31b8ee0a30c" class="st0" d="M184.79,259.91l7.56-.92c.24,1.93.89,3.4,1.95,4.42,1.06,1.02,2.34,1.53,3.84,1.53,1.61,0,2.97-.61,4.07-1.84,1.1-1.22,1.65-2.87,1.65-4.95,0-1.96-.53-3.52-1.58-4.67-1.06-1.15-2.34-1.72-3.86-1.72-1,0-2.2.19-3.59.58l.86-6.37c2.11.06,3.73-.4,4.84-1.38,1.11-.97,1.67-2.27,1.67-3.88,0-1.37-.41-2.47-1.22-3.28-.82-.82-1.9-1.22-3.25-1.22s-2.47.46-3.42,1.39c-.95.93-1.52,2.28-1.72,4.06l-7.2-1.22c.5-2.47,1.26-4.43,2.27-5.91,1.01-1.47,2.42-2.63,4.23-3.48,1.81-.84,3.83-1.27,6.08-1.27,3.84,0,6.91,1.22,9.23,3.67,1.91,2,2.86,4.26,2.86,6.78,0,3.58-1.96,6.43-5.87,8.56,2.34.5,4.2,1.62,5.6,3.36,1.4,1.74,2.1,3.85,2.1,6.31,0,3.58-1.31,6.63-3.92,9.15-2.61,2.52-5.87,3.78-9.76,3.78-3.69,0-6.75-1.06-9.18-3.18-2.43-2.12-3.84-4.9-4.23-8.33h0Z"/>
  <path id="path_755ae873fe3b305bce8cec2f8a7b9ab2" class="st0" d="M218.44,229.98h15.04c3.39,0,5.98.26,7.76.78,2.39.7,4.44,1.96,6.14,3.75,1.71,1.8,3,4,3.89,6.6s1.33,5.82,1.33,9.63c0,3.36-.42,6.25-1.25,8.68-1.02,2.97-2.47,5.37-4.37,7.2-1.43,1.39-3.36,2.47-5.78,3.25-1.82.57-4.24.86-7.29.86h-15.49v-40.76h0ZM226.67,236.87v27h6.14c2.3,0,3.96-.13,4.98-.39,1.33-.33,2.44-.9,3.32-1.7.88-.8,1.6-2.11,2.15-3.93s.83-4.31.83-7.47-.28-5.57-.83-7.26c-.56-1.69-1.33-3-2.34-3.95s-2.27-1.58-3.81-1.92c-1.15-.26-3.4-.39-6.76-.39h-3.7,0Z"/>
  <path id="path_0e6fab3c56c39086ed019ababbc29456" class="st0" d="M310.06,270.74h-8.95l-3.56-9.26h-16.29l-3.36,9.26h-8.73l15.88-40.76h8.7l16.32,40.76ZM294.91,254.61l-5.62-15.13-5.51,15.13h11.12Z"/>
  <path id="path_1c2ece4fa3d04edc5ccf3c60e88208fb" class="st0" d="M314.09,270.74v-40.76h7.81v21.63l9.15-10.4h9.62l-10.09,10.79,10.82,18.74h-8.42l-7.42-13.26-3.64,3.81v9.45h-7.81Z"/>
  <path id="path_ed05f24ad9fdd3612b9645341d6c2b28" class="st0" d="M351.87,250.21l-7.09-1.28c.8-2.85,2.17-4.97,4.12-6.34,1.95-1.37,4.84-2.06,8.68-2.06,3.48,0,6.08.41,7.79,1.24s2.91,1.87,3.6,3.14,1.04,3.6,1.04,6.99l-.08,9.12c0,2.6.13,4.51.38,5.74.25,1.23.72,2.55,1.4,3.96h-7.73c-.2-.52-.45-1.29-.75-2.31-.13-.46-.22-.77-.28-.92-1.33,1.3-2.76,2.27-4.28,2.92s-3.14.97-4.87.97c-3.04,0-5.44-.82-7.19-2.47-1.75-1.65-2.63-3.74-2.63-6.26,0-1.67.4-3.16,1.2-4.46s1.91-2.31,3.35-3,3.51-1.3,6.21-1.82c3.65-.69,6.18-1.33,7.59-1.92v-.78c0-1.5-.37-2.57-1.11-3.21s-2.14-.96-4.2-.96c-1.39,0-2.47.27-3.25.82-.78.55-1.41,1.51-1.89,2.88h0ZM362.33,256.55c-1,.33-2.59.73-4.75,1.2-2.17.46-3.59.92-4.25,1.36-1.02.72-1.53,1.64-1.53,2.75s.41,2.04,1.22,2.84c.82.8,1.85,1.2,3.11,1.2,1.41,0,2.75-.46,4.03-1.39.95-.7,1.57-1.57,1.86-2.59.2-.67.31-1.94.31-3.81v-1.56h0Z"/>
  <path id="path_3195c872397f126d5c899336d1e40f60" class="st0" d="M404.8,270.74h-7.26v-4.34c-1.2,1.69-2.63,2.94-4.27,3.77-1.64.82-3.29,1.24-4.96,1.24-3.39,0-6.3-1.37-8.72-4.1-2.42-2.73-3.63-6.55-3.63-11.44s1.18-8.81,3.53-11.41c2.35-2.6,5.33-3.91,8.93-3.91,3.3,0,6.15,1.37,8.56,4.12v-14.68h7.81v40.76h0ZM383.94,255.33c0,3.15.44,5.43,1.31,6.84,1.26,2.04,3.02,3.06,5.28,3.06,1.8,0,3.33-.76,4.59-2.29,1.26-1.53,1.89-3.81,1.89-6.85,0-3.39-.61-5.83-1.84-7.33-1.22-1.49-2.79-2.24-4.7-2.24s-3.41.74-4.66,2.21c-1.25,1.47-1.88,3.67-1.88,6.6Z"/>
  <path id="path_f4eef323683f0d7fe37d16fbe80d564f" class="st0" d="M429.6,261.35l7.79,1.31c-1,2.85-2.58,5.03-4.74,6.52s-4.86,2.24-8.11,2.24c-5.13,0-8.93-1.68-11.4-5.03-1.95-2.69-2.92-6.08-2.92-10.18,0-4.89,1.28-8.73,3.84-11.5,2.56-2.77,5.79-4.16,9.7-4.16,4.39,0,7.86,1.45,10.4,4.35s3.75,7.35,3.64,13.33h-19.57c.06,2.32.69,4.12,1.89,5.41,1.2,1.29,2.71,1.93,4.5,1.93,1.22,0,2.25-.33,3.09-1,.83-.67,1.46-1.74,1.89-3.23h0ZM430.04,253.46c-.06-2.26-.64-3.98-1.75-5.16-1.11-1.18-2.47-1.77-4.06-1.77-1.71,0-3.11.62-4.23,1.86-1.11,1.24-1.66,2.93-1.64,5.06h11.68Z"/>
  <path id="path_0372ff272208631692621b87e8e0df80" class="st0" d="M443.57,241.2h7.2v4.03c2.58-3.13,5.64-4.7,9.2-4.7,1.89,0,3.53.39,4.92,1.17,1.39.78,2.53,1.96,3.42,3.53,1.3-1.58,2.7-2.75,4.2-3.53,1.5-.78,3.1-1.17,4.81-1.17,2.17,0,4,.44,5.51,1.32s2.62,2.17,3.36,3.88c.54,1.26.81,3.3.81,6.12v18.88h-7.81v-16.88c0-2.93-.27-4.82-.81-5.67-.72-1.11-1.84-1.67-3.34-1.67-1.09,0-2.12.33-3.09,1-.96.67-1.66,1.64-2.09,2.93s-.64,3.32-.64,6.1v14.18h-7.81v-16.18c0-2.87-.14-4.73-.42-5.56-.28-.83-.71-1.46-1.29-1.86-.58-.41-1.38-.61-2.38-.61-1.2,0-2.29.32-3.25.97-.96.65-1.65,1.58-2.07,2.81-.42,1.22-.63,3.25-.63,6.09v14.35h-7.81v-29.53h0Z"/>
  <path id="path_00a00449360d76e9f6a6357107cf6023" class="st0" d="M494.8,237.2v-7.23h7.81v7.23h-7.81ZM494.8,270.74v-29.53h7.81v29.53h-7.81Z"/>
  <path id="path_2a687ba0774ff3f00ddd802a9a3321d5" class="st0" d="M527.71,261.35l7.79,1.31c-1,2.85-2.58,5.03-4.74,6.52s-4.86,2.24-8.11,2.24c-5.13,0-8.93-1.68-11.4-5.03-1.95-2.69-2.92-6.08-2.92-10.18,0-4.89,1.28-8.73,3.84-11.5,2.56-2.77,5.79-4.16,9.7-4.16,4.39,0,7.86,1.45,10.4,4.35s3.75,7.35,3.64,13.33h-19.57c.06,2.32.69,4.12,1.89,5.41,1.2,1.29,2.71,1.93,4.5,1.93,1.22,0,2.25-.33,3.09-1s1.46-1.74,1.89-3.23h0ZM528.15,253.46c-.06-2.26-.64-3.98-1.75-5.16s-2.47-1.77-4.06-1.77c-1.71,0-3.11.62-4.23,1.86-1.11,1.24-1.66,2.93-1.64,5.06h11.68Z"/>
</svg>